<mxfile host="app.diagrams.net" agent="Mozilla/5.0 (Windows NT 10.0; Win64; x64) AppleWebKit/537.36 (KHTML, like Gecko) Chrome/137.0.0.0 Safari/537.36" version="27.1.4">
  <diagram name="Page-1" id="Q8HRdb8Fr6lKuLCnQahP">
    <mxGraphModel dx="2603" dy="852" grid="1" gridSize="10" guides="1" tooltips="1" connect="1" arrows="1" fold="1" page="1" pageScale="1" pageWidth="1100" pageHeight="850" math="0" shadow="0">
      <root>
        <mxCell id="0" />
        <mxCell id="1" parent="0" />
        <mxCell id="bd8e4ljMibuZXupcdCCE-2" value="" style="endArrow=classic;html=1;rounded=0;exitX=0.5;exitY=1;exitDx=0;exitDy=0;" parent="1" edge="1">
          <mxGeometry width="50" height="50" relative="1" as="geometry">
            <mxPoint x="135" y="250" as="sourcePoint" />
            <mxPoint x="135" y="280" as="targetPoint" />
          </mxGeometry>
        </mxCell>
        <mxCell id="bd8e4ljMibuZXupcdCCE-10" value="" style="edgeStyle=orthogonalEdgeStyle;rounded=0;orthogonalLoop=1;jettySize=auto;html=1;" parent="1" source="bd8e4ljMibuZXupcdCCE-3" target="bd8e4ljMibuZXupcdCCE-8" edge="1">
          <mxGeometry relative="1" as="geometry" />
        </mxCell>
        <mxCell id="bd8e4ljMibuZXupcdCCE-3" value="User Login" style="rounded=0;whiteSpace=wrap;html=1;" parent="1" vertex="1">
          <mxGeometry x="75" y="280" width="120" height="70" as="geometry" />
        </mxCell>
        <mxCell id="bd8e4ljMibuZXupcdCCE-7" value="" style="endArrow=classic;html=1;rounded=0;exitX=0.5;exitY=1;exitDx=0;exitDy=0;" parent="1" source="bd8e4ljMibuZXupcdCCE-3" edge="1">
          <mxGeometry width="50" height="50" relative="1" as="geometry">
            <mxPoint x="225" y="420" as="sourcePoint" />
            <mxPoint x="135" y="390" as="targetPoint" />
          </mxGeometry>
        </mxCell>
        <mxCell id="bd8e4ljMibuZXupcdCCE-8" value="Input Proker" style="rounded=1;whiteSpace=wrap;html=1;" parent="1" vertex="1">
          <mxGeometry x="70" y="390" width="130" height="70" as="geometry" />
        </mxCell>
        <mxCell id="bd8e4ljMibuZXupcdCCE-9" value="Start" style="strokeWidth=2;html=1;shape=mxgraph.flowchart.start_2;whiteSpace=wrap;" parent="1" vertex="1">
          <mxGeometry x="105" y="180" width="60" height="60" as="geometry" />
        </mxCell>
        <mxCell id="bd8e4ljMibuZXupcdCCE-12" value="" style="endArrow=classic;html=1;rounded=0;exitX=0.5;exitY=1;exitDx=0;exitDy=0;" parent="1" source="bd8e4ljMibuZXupcdCCE-8" edge="1">
          <mxGeometry width="50" height="50" relative="1" as="geometry">
            <mxPoint x="225" y="520" as="sourcePoint" />
            <mxPoint x="135" y="510" as="targetPoint" />
          </mxGeometry>
        </mxCell>
        <mxCell id="bd8e4ljMibuZXupcdCCE-13" value="Data Proker Masuk" style="strokeWidth=2;html=1;shape=mxgraph.flowchart.stored_data;whiteSpace=wrap;" parent="1" vertex="1">
          <mxGeometry x="85" y="510" width="100" height="60" as="geometry" />
        </mxCell>
        <mxCell id="bd8e4ljMibuZXupcdCCE-14" value="" style="strokeWidth=2;html=1;shape=mxgraph.flowchart.start_2;whiteSpace=wrap;fillColor=light-dark(#000000,#FFFFFF);" parent="1" vertex="1">
          <mxGeometry x="105" y="620" width="60" height="60" as="geometry" />
        </mxCell>
        <mxCell id="bd8e4ljMibuZXupcdCCE-15" value="" style="endArrow=classic;html=1;rounded=0;exitX=0.5;exitY=1;exitDx=0;exitDy=0;" parent="1" edge="1">
          <mxGeometry width="50" height="50" relative="1" as="geometry">
            <mxPoint x="134.5" y="570" as="sourcePoint" />
            <mxPoint x="134.5" y="620" as="targetPoint" />
          </mxGeometry>
        </mxCell>
        <mxCell id="bd8e4ljMibuZXupcdCCE-16" value="Login" style="strokeWidth=2;html=1;shape=mxgraph.flowchart.start_2;whiteSpace=wrap;" parent="1" vertex="1">
          <mxGeometry x="400" y="180" width="60" height="60" as="geometry" />
        </mxCell>
        <mxCell id="_XXPA9lbSk9OIhbwYW-J-1" value="Flow Input Proker" style="text;html=1;align=center;verticalAlign=middle;whiteSpace=wrap;rounded=0;" parent="1" vertex="1">
          <mxGeometry x="67.5" y="140" width="135" height="30" as="geometry" />
        </mxCell>
        <mxCell id="bd8e4ljMibuZXupcdCCE-17" value="" style="strokeWidth=2;html=1;shape=mxgraph.flowchart.annotation_2;align=left;labelPosition=right;pointerEvents=1;rotation=89;" parent="1" vertex="1">
          <mxGeometry x="410" y="355" width="50" height="100" as="geometry" />
        </mxCell>
        <mxCell id="bd8e4ljMibuZXupcdCCE-18" value="Non-Budget" style="rounded=1;whiteSpace=wrap;html=1;absoluteArcSize=1;arcSize=14;strokeWidth=2;" parent="1" vertex="1">
          <mxGeometry x="310" y="425" width="100" height="50" as="geometry" />
        </mxCell>
        <mxCell id="bd8e4ljMibuZXupcdCCE-19" value="Budgeted" style="rounded=1;whiteSpace=wrap;html=1;absoluteArcSize=1;arcSize=14;strokeWidth=2;" parent="1" vertex="1">
          <mxGeometry x="480" y="425" width="100" height="50" as="geometry" />
        </mxCell>
        <mxCell id="bd8e4ljMibuZXupcdCCE-20" value="Menu PDK" style="rounded=1;whiteSpace=wrap;html=1;absoluteArcSize=1;arcSize=14;strokeWidth=2;" parent="1" vertex="1">
          <mxGeometry x="327.5" y="340" width="205" height="40" as="geometry" />
        </mxCell>
        <mxCell id="bd8e4ljMibuZXupcdCCE-21" value="" style="endArrow=classic;html=1;rounded=0;exitX=0.5;exitY=1;exitDx=0;exitDy=0;exitPerimeter=0;entryX=0.5;entryY=0;entryDx=0;entryDy=0;" parent="1" target="bd8e4ljMibuZXupcdCCE-20" edge="1">
          <mxGeometry width="50" height="50" relative="1" as="geometry">
            <mxPoint x="430" y="250" as="sourcePoint" />
            <mxPoint x="500" y="440" as="targetPoint" />
          </mxGeometry>
        </mxCell>
        <mxCell id="KIqZfC4QvmKz3ChBfNW--3" value="" style="endArrow=classic;html=1;rounded=0;exitX=0.5;exitY=1;exitDx=0;exitDy=0;" parent="1" source="bd8e4ljMibuZXupcdCCE-19" edge="1">
          <mxGeometry width="50" height="50" relative="1" as="geometry">
            <mxPoint x="280" y="490" as="sourcePoint" />
            <mxPoint x="530" y="530" as="targetPoint" />
          </mxGeometry>
        </mxCell>
        <mxCell id="KIqZfC4QvmKz3ChBfNW--4" value="1. Tahun Anggaran : 2025/2026 (auto field)&lt;div&gt;2. Komisi : KDM (defined in UAM)&lt;/div&gt;&lt;div&gt;3. Seksi/Tim: Teknologi &amp;amp; Inovasi (Following Struktur Komisi)&lt;/div&gt;&lt;div&gt;4. Proker :&amp;nbsp;Pengembangan Website dan Aplikasi Gereja (Following Master Proker)&lt;/div&gt;&lt;div&gt;5. Nominal : 300.000&amp;nbsp;&lt;span style=&quot;background-color: transparent; color: light-dark(rgb(0, 0, 0), rgb(255, 255, 255));&quot;&gt;&amp;nbsp;&lt;/span&gt;&lt;span style=&quot;background-color: transparent; color: light-dark(rgb(0, 0, 0), rgb(255, 255, 255));&quot;&gt;(Following Master Proker)&lt;/span&gt;&lt;/div&gt;" style="rounded=1;whiteSpace=wrap;html=1;align=left;" parent="1" vertex="1">
          <mxGeometry x="350" y="510" width="280" height="130" as="geometry" />
        </mxCell>
        <mxCell id="EFFLVUITV1ritFmUOYrr-1" value="Pengajuan Dana Keluar (PDK)" style="text;html=1;align=center;verticalAlign=middle;whiteSpace=wrap;rounded=0;" parent="1" vertex="1">
          <mxGeometry x="370" y="140" width="135" height="30" as="geometry" />
        </mxCell>
        <mxCell id="KIqZfC4QvmKz3ChBfNW--7" value="" style="endArrow=classic;html=1;rounded=0;entryX=0.5;entryY=0;entryDx=0;entryDy=0;" parent="1" source="KIqZfC4QvmKz3ChBfNW--4" target="KIqZfC4QvmKz3ChBfNW--5" edge="1">
          <mxGeometry width="50" height="50" relative="1" as="geometry">
            <mxPoint x="480" y="640" as="sourcePoint" />
            <mxPoint x="479.5" y="635" as="targetPoint" />
          </mxGeometry>
        </mxCell>
        <mxCell id="EFFLVUITV1ritFmUOYrr-3" value="" style="rounded=0;orthogonalLoop=1;jettySize=auto;html=1;" parent="1" source="KIqZfC4QvmKz3ChBfNW--8" target="KIqZfC4QvmKz3ChBfNW--10" edge="1">
          <mxGeometry relative="1" as="geometry" />
        </mxCell>
        <mxCell id="KIqZfC4QvmKz3ChBfNW--8" value="Submit PDK" style="rounded=1;whiteSpace=wrap;html=1;" parent="1" vertex="1">
          <mxGeometry x="430" y="760" width="120" height="40" as="geometry" />
        </mxCell>
        <mxCell id="KIqZfC4QvmKz3ChBfNW--9" value="" style="endArrow=classic;html=1;rounded=0;exitX=0.5;exitY=1;exitDx=0;exitDy=0;entryX=0.5;entryY=0;entryDx=0;entryDy=0;" parent="1" source="KIqZfC4QvmKz3ChBfNW--5" target="KIqZfC4QvmKz3ChBfNW--8" edge="1">
          <mxGeometry width="50" height="50" relative="1" as="geometry">
            <mxPoint x="540" y="610" as="sourcePoint" />
            <mxPoint x="540.5" y="650" as="targetPoint" />
          </mxGeometry>
        </mxCell>
        <mxCell id="KIqZfC4QvmKz3ChBfNW--10" value="Tersimpan di database" style="rounded=1;whiteSpace=wrap;html=1;" parent="1" vertex="1">
          <mxGeometry x="430" y="820" width="120" height="40" as="geometry" />
        </mxCell>
        <mxCell id="KIqZfC4QvmKz3ChBfNW--12" value="" style="endArrow=none;dashed=1;html=1;dashPattern=1 3;strokeWidth=2;rounded=0;" parent="1" edge="1">
          <mxGeometry width="50" height="50" relative="1" as="geometry">
            <mxPoint x="240" y="840" as="sourcePoint" />
            <mxPoint x="240" y="150" as="targetPoint" />
          </mxGeometry>
        </mxCell>
        <mxCell id="KIqZfC4QvmKz3ChBfNW--15" value="" style="endArrow=none;dashed=1;html=1;dashPattern=1 3;strokeWidth=2;rounded=0;" parent="1" edge="1">
          <mxGeometry width="50" height="50" relative="1" as="geometry">
            <mxPoint x="660" y="830" as="sourcePoint" />
            <mxPoint x="660" y="140" as="targetPoint" />
          </mxGeometry>
        </mxCell>
        <mxCell id="KIqZfC4QvmKz3ChBfNW--5" value="&lt;div&gt;yyyy/mm/kode komisi/no. PDK&lt;/div&gt;&lt;div&gt;Contoh : 2025/06/110/015&lt;/div&gt;&lt;div&gt;No. PDM : Auto Increment 3 digit &amp;amp; Reset kembali ke 000 setelah awal bulan&lt;/div&gt;" style="rounded=1;whiteSpace=wrap;html=1;" parent="1" vertex="1">
          <mxGeometry x="370" y="670" width="240" height="60" as="geometry" />
        </mxCell>
        <mxCell id="EFFLVUITV1ritFmUOYrr-2" value="Proses Approval" style="text;html=1;align=center;verticalAlign=middle;whiteSpace=wrap;rounded=0;" parent="1" vertex="1">
          <mxGeometry x="1260" y="140" width="135" height="30" as="geometry" />
        </mxCell>
        <mxCell id="EFFLVUITV1ritFmUOYrr-4" style="edgeStyle=orthogonalEdgeStyle;rounded=0;orthogonalLoop=1;jettySize=auto;html=1;exitX=0.5;exitY=1;exitDx=0;exitDy=0;" parent="1" source="bd8e4ljMibuZXupcdCCE-19" target="bd8e4ljMibuZXupcdCCE-19" edge="1">
          <mxGeometry relative="1" as="geometry" />
        </mxCell>
        <mxCell id="kk42pE79QCRUeC5nkYzR-19" value="" style="edgeStyle=orthogonalEdgeStyle;rounded=0;orthogonalLoop=1;jettySize=auto;html=1;" edge="1" parent="1" source="EFFLVUITV1ritFmUOYrr-6" target="kk42pE79QCRUeC5nkYzR-18">
          <mxGeometry relative="1" as="geometry" />
        </mxCell>
        <mxCell id="EFFLVUITV1ritFmUOYrr-6" value="Login" style="strokeWidth=2;html=1;shape=mxgraph.flowchart.start_2;whiteSpace=wrap;" parent="1" vertex="1">
          <mxGeometry x="1170" y="1620" width="60" height="60" as="geometry" />
        </mxCell>
        <mxCell id="EFFLVUITV1ritFmUOYrr-40" style="edgeStyle=orthogonalEdgeStyle;rounded=0;orthogonalLoop=1;jettySize=auto;html=1;entryX=0.5;entryY=0;entryDx=0;entryDy=0;" parent="1" source="EFFLVUITV1ritFmUOYrr-20" target="EFFLVUITV1ritFmUOYrr-35" edge="1">
          <mxGeometry relative="1" as="geometry">
            <mxPoint x="-264.91999999999996" y="2408.75" as="targetPoint" />
          </mxGeometry>
        </mxCell>
        <mxCell id="EFFLVUITV1ritFmUOYrr-20" value="Submit PDK" style="rounded=1;whiteSpace=wrap;html=1;" parent="1" vertex="1">
          <mxGeometry x="-334.92" y="2278.75" width="140" height="50" as="geometry" />
        </mxCell>
        <mxCell id="EFFLVUITV1ritFmUOYrr-44" style="edgeStyle=orthogonalEdgeStyle;rounded=0;orthogonalLoop=1;jettySize=auto;html=1;exitX=0;exitY=0.5;exitDx=0;exitDy=0;" parent="1" source="kk42pE79QCRUeC5nkYzR-47" target="EFFLVUITV1ritFmUOYrr-43" edge="1">
          <mxGeometry relative="1" as="geometry" />
        </mxCell>
        <mxCell id="EFFLVUITV1ritFmUOYrr-50" value="Buat Baru" style="edgeLabel;html=1;align=center;verticalAlign=middle;resizable=0;points=[];" parent="EFFLVUITV1ritFmUOYrr-44" vertex="1" connectable="0">
          <mxGeometry x="-0.0727" y="3" relative="1" as="geometry">
            <mxPoint y="3" as="offset" />
          </mxGeometry>
        </mxCell>
        <mxCell id="kk42pE79QCRUeC5nkYzR-63" style="edgeStyle=orthogonalEdgeStyle;rounded=0;orthogonalLoop=1;jettySize=auto;html=1;exitX=1;exitY=0.5;exitDx=0;exitDy=0;entryX=0.5;entryY=0;entryDx=0;entryDy=0;" edge="1" parent="1" source="EFFLVUITV1ritFmUOYrr-22" target="kk42pE79QCRUeC5nkYzR-47">
          <mxGeometry relative="1" as="geometry" />
        </mxCell>
        <mxCell id="kk42pE79QCRUeC5nkYzR-65" style="edgeStyle=orthogonalEdgeStyle;rounded=0;orthogonalLoop=1;jettySize=auto;html=1;exitX=0;exitY=0.5;exitDx=0;exitDy=0;entryX=1;entryY=0.5;entryDx=0;entryDy=0;" edge="1" parent="1" source="EFFLVUITV1ritFmUOYrr-22" target="kk42pE79QCRUeC5nkYzR-64">
          <mxGeometry relative="1" as="geometry" />
        </mxCell>
        <mxCell id="EFFLVUITV1ritFmUOYrr-22" value="Menu" style="rhombus;whiteSpace=wrap;html=1;" parent="1" vertex="1">
          <mxGeometry x="818.75" y="1855" width="140" height="70" as="geometry" />
        </mxCell>
        <mxCell id="KIqZfC4QvmKz3ChBfNW--19" value="Pengembalian Dana Masuk (PDM)" style="text;html=1;align=center;verticalAlign=middle;whiteSpace=wrap;rounded=0;" parent="1" vertex="1">
          <mxGeometry x="840" y="140" width="135" height="30" as="geometry" />
        </mxCell>
        <mxCell id="KIqZfC4QvmKz3ChBfNW--20" value="Login" style="strokeWidth=2;html=1;shape=mxgraph.flowchart.start_2;whiteSpace=wrap;" parent="1" vertex="1">
          <mxGeometry x="870" y="180" width="60" height="60" as="geometry" />
        </mxCell>
        <mxCell id="KIqZfC4QvmKz3ChBfNW--21" value="" style="endArrow=classic;html=1;rounded=0;exitX=0.5;exitY=1;exitDx=0;exitDy=0;exitPerimeter=0;entryX=0.5;entryY=0;entryDx=0;entryDy=0;" parent="1" source="KIqZfC4QvmKz3ChBfNW--20" target="KIqZfC4QvmKz3ChBfNW--22" edge="1">
          <mxGeometry width="50" height="50" relative="1" as="geometry">
            <mxPoint x="910.92" y="240" as="sourcePoint" />
            <mxPoint x="904.09" y="280" as="targetPoint" />
          </mxGeometry>
        </mxCell>
        <mxCell id="KIqZfC4QvmKz3ChBfNW--22" value="Pilih Nomor PDK" style="rounded=1;whiteSpace=wrap;html=1;absoluteArcSize=1;arcSize=14;strokeWidth=2;" parent="1" vertex="1">
          <mxGeometry x="797.5" y="290" width="205" height="40" as="geometry" />
        </mxCell>
        <mxCell id="EFFLVUITV1ritFmUOYrr-28" style="edgeStyle=orthogonalEdgeStyle;rounded=0;orthogonalLoop=1;jettySize=auto;html=1;" parent="1" source="EFFLVUITV1ritFmUOYrr-25" edge="1">
          <mxGeometry relative="1" as="geometry">
            <mxPoint x="-584.92" y="2138.75" as="targetPoint" />
            <Array as="points">
              <mxPoint x="-454.92" y="2008.75" />
              <mxPoint x="-584.92" y="2008.75" />
            </Array>
          </mxGeometry>
        </mxCell>
        <mxCell id="EFFLVUITV1ritFmUOYrr-30" value="Non-Budgeted" style="edgeLabel;html=1;align=center;verticalAlign=middle;resizable=0;points=[];" parent="EFFLVUITV1ritFmUOYrr-28" vertex="1" connectable="0">
          <mxGeometry x="0.5582" relative="1" as="geometry">
            <mxPoint y="-9" as="offset" />
          </mxGeometry>
        </mxCell>
        <mxCell id="EFFLVUITV1ritFmUOYrr-29" style="edgeStyle=orthogonalEdgeStyle;rounded=0;orthogonalLoop=1;jettySize=auto;html=1;exitX=0.5;exitY=1;exitDx=0;exitDy=0;entryX=0.5;entryY=0;entryDx=0;entryDy=0;" parent="1" source="EFFLVUITV1ritFmUOYrr-25" target="EFFLVUITV1ritFmUOYrr-32" edge="1">
          <mxGeometry relative="1" as="geometry">
            <mxPoint x="-374.92" y="2128.75" as="targetPoint" />
            <Array as="points">
              <mxPoint x="-454.92" y="2008.75" />
              <mxPoint x="-264.91999999999996" y="2008.75" />
            </Array>
          </mxGeometry>
        </mxCell>
        <mxCell id="EFFLVUITV1ritFmUOYrr-31" value="Budgeted" style="edgeLabel;html=1;align=center;verticalAlign=middle;resizable=0;points=[];" parent="EFFLVUITV1ritFmUOYrr-29" vertex="1" connectable="0">
          <mxGeometry x="0.7368" y="-1" relative="1" as="geometry">
            <mxPoint x="1" y="6" as="offset" />
          </mxGeometry>
        </mxCell>
        <mxCell id="EFFLVUITV1ritFmUOYrr-25" value="Budgeted" style="rhombus;whiteSpace=wrap;html=1;" parent="1" vertex="1">
          <mxGeometry x="-494.92" y="1851.25" width="80" height="80" as="geometry" />
        </mxCell>
        <mxCell id="KIqZfC4QvmKz3ChBfNW--24" value="Upload Bukti Transfer / Kwitansi / dokumen pendukung lainnya" style="rounded=1;whiteSpace=wrap;html=1;absoluteArcSize=1;arcSize=14;strokeWidth=2;" parent="1" vertex="1">
          <mxGeometry x="805" y="385" width="205" height="40" as="geometry" />
        </mxCell>
        <mxCell id="KIqZfC4QvmKz3ChBfNW--25" value="" style="endArrow=classic;html=1;rounded=0;exitX=0.5;exitY=1;exitDx=0;exitDy=0;entryX=0.465;entryY=0.01;entryDx=0;entryDy=0;entryPerimeter=0;" parent="1" source="KIqZfC4QvmKz3ChBfNW--22" target="KIqZfC4QvmKz3ChBfNW--24" edge="1">
          <mxGeometry width="50" height="50" relative="1" as="geometry">
            <mxPoint x="930" y="360" as="sourcePoint" />
            <mxPoint x="900" y="380" as="targetPoint" />
          </mxGeometry>
        </mxCell>
        <mxCell id="KIqZfC4QvmKz3ChBfNW--26" value="&lt;div&gt;yyyy/mm/kode komisi/no. PDM&lt;/div&gt;&lt;div&gt;Contoh : 2025/06/110/015&lt;/div&gt;&lt;div&gt;No. PDM : Auto Increment 3 digit &amp;amp; Reset kembali ke 000 setelah awal bulan&lt;/div&gt;" style="rounded=1;whiteSpace=wrap;html=1;" parent="1" vertex="1">
          <mxGeometry x="810" y="460" width="180" height="100" as="geometry" />
        </mxCell>
        <mxCell id="KIqZfC4QvmKz3ChBfNW--27" value="" style="endArrow=classic;html=1;rounded=0;exitX=0.463;exitY=1.089;exitDx=0;exitDy=0;exitPerimeter=0;" parent="1" source="KIqZfC4QvmKz3ChBfNW--24" edge="1">
          <mxGeometry width="50" height="50" relative="1" as="geometry">
            <mxPoint x="930" y="470" as="sourcePoint" />
            <mxPoint x="900" y="460" as="targetPoint" />
          </mxGeometry>
        </mxCell>
        <mxCell id="EFFLVUITV1ritFmUOYrr-39" style="edgeStyle=orthogonalEdgeStyle;rounded=0;orthogonalLoop=1;jettySize=auto;html=1;" parent="1" source="EFFLVUITV1ritFmUOYrr-32" target="EFFLVUITV1ritFmUOYrr-20" edge="1">
          <mxGeometry relative="1" as="geometry" />
        </mxCell>
        <mxCell id="EFFLVUITV1ritFmUOYrr-32" value="&lt;div&gt;&lt;span style=&quot;&quot;&gt;&lt;b&gt;INPUT&lt;/b&gt;&lt;/span&gt;&lt;/div&gt;&lt;span style=&quot;&quot;&gt;1. Tahun Anggaran : 2025/2026 (auto field)&lt;/span&gt;&lt;div style=&quot;&quot;&gt;2. Komisi : KDM (defined in UAM)&lt;/div&gt;&lt;div style=&quot;&quot;&gt;3. Seksi/Tim: Teknologi &amp;amp; Inovasi (Following Struktur Komisi)&lt;/div&gt;&lt;div style=&quot;&quot;&gt;4. Proker :&amp;nbsp;Pengembangan Website&lt;br&gt;dan Aplikasi Gereja (Following Master Proker)&lt;/div&gt;&lt;div style=&quot;&quot;&gt;5. Keterangan : Pembayaran Sewa Server + Domain&lt;br&gt;6. Nominal : 300.000&amp;nbsp;&lt;span style=&quot;background-color: transparent; color: light-dark(rgb(0, 0, 0), rgb(255, 255, 255));&quot;&gt;&amp;nbsp;&lt;/span&gt;&lt;span style=&quot;background-color: transparent; color: light-dark(rgb(0, 0, 0), rgb(255, 255, 255));&quot;&gt;(Following Master Proker)&lt;/span&gt;&lt;/div&gt;" style="shape=parallelogram;perimeter=parallelogramPerimeter;whiteSpace=wrap;html=1;fixedSize=1;align=center;" parent="1" vertex="1">
          <mxGeometry x="-454.92" y="2098.75" width="380" height="140" as="geometry" />
        </mxCell>
        <mxCell id="KIqZfC4QvmKz3ChBfNW--28" value="" style="rounded=0;orthogonalLoop=1;jettySize=auto;html=1;" parent="1" source="KIqZfC4QvmKz3ChBfNW--29" target="KIqZfC4QvmKz3ChBfNW--30" edge="1">
          <mxGeometry relative="1" as="geometry" />
        </mxCell>
        <mxCell id="KIqZfC4QvmKz3ChBfNW--29" value="Submit PDM" style="rounded=1;whiteSpace=wrap;html=1;" parent="1" vertex="1">
          <mxGeometry x="840" y="610" width="120" height="40" as="geometry" />
        </mxCell>
        <mxCell id="KIqZfC4QvmKz3ChBfNW--30" value="Tersimpan di database" style="rounded=1;whiteSpace=wrap;html=1;" parent="1" vertex="1">
          <mxGeometry x="840" y="670" width="120" height="40" as="geometry" />
        </mxCell>
        <mxCell id="KIqZfC4QvmKz3ChBfNW--31" value="" style="endArrow=classic;html=1;rounded=0;exitX=0.5;exitY=1;exitDx=0;exitDy=0;entryX=0.5;entryY=0;entryDx=0;entryDy=0;" parent="1" source="KIqZfC4QvmKz3ChBfNW--26" target="KIqZfC4QvmKz3ChBfNW--29" edge="1">
          <mxGeometry width="50" height="50" relative="1" as="geometry">
            <mxPoint x="920" y="780" as="sourcePoint" />
            <mxPoint x="920" y="810" as="targetPoint" />
          </mxGeometry>
        </mxCell>
        <mxCell id="KIqZfC4QvmKz3ChBfNW--32" value="1. Bendahara Komisi / Panitia submit PDK/PDM" style="shape=process;whiteSpace=wrap;html=1;backgroundOutline=1;" parent="1" vertex="1">
          <mxGeometry x="1130" y="200" width="150" height="80" as="geometry" />
        </mxCell>
        <mxCell id="EFFLVUITV1ritFmUOYrr-35" value="&lt;div&gt;&lt;span style=&quot;&quot;&gt;&lt;b&gt;OUTPUT&lt;/b&gt;&lt;/span&gt;&lt;/div&gt;&lt;div&gt;yyyy/mm/kode komisi/no. PDK&lt;/div&gt;&lt;div&gt;Contoh : 2025/06/110/015&lt;/div&gt;&lt;div&gt;No. PDM : Auto Increment 3 digit &amp;amp; &lt;br&gt;Reset kembali ke 000 setelah awal bulan&lt;/div&gt;" style="shape=parallelogram;perimeter=parallelogramPerimeter;whiteSpace=wrap;html=1;fixedSize=1;align=center;" parent="1" vertex="1">
          <mxGeometry x="-454.92" y="2358.75" width="380" height="80" as="geometry" />
        </mxCell>
        <mxCell id="KIqZfC4QvmKz3ChBfNW--33" value="2. Review Ketua Komisi/Panitia" style="shape=process;whiteSpace=wrap;html=1;backgroundOutline=1;" parent="1" vertex="1">
          <mxGeometry x="1130" y="320" width="150" height="80" as="geometry" />
        </mxCell>
        <mxCell id="KIqZfC4QvmKz3ChBfNW--34" value="" style="endArrow=classic;html=1;rounded=0;exitX=0.5;exitY=1;exitDx=0;exitDy=0;entryX=0.5;entryY=0;entryDx=0;entryDy=0;" parent="1" source="KIqZfC4QvmKz3ChBfNW--32" target="KIqZfC4QvmKz3ChBfNW--33" edge="1">
          <mxGeometry width="50" height="50" relative="1" as="geometry">
            <mxPoint x="1290" y="300" as="sourcePoint" />
            <mxPoint x="1340" y="250" as="targetPoint" />
          </mxGeometry>
        </mxCell>
        <mxCell id="KIqZfC4QvmKz3ChBfNW--35" value="Approve Revise&lt;div&gt;Reject&lt;/div&gt;" style="rhombus;whiteSpace=wrap;html=1;" parent="1" vertex="1">
          <mxGeometry x="1320" y="320" width="80" height="80" as="geometry" />
        </mxCell>
        <mxCell id="KIqZfC4QvmKz3ChBfNW--36" value="" style="endArrow=classic;html=1;rounded=0;exitX=1;exitY=0.5;exitDx=0;exitDy=0;entryX=0;entryY=0.5;entryDx=0;entryDy=0;" parent="1" source="KIqZfC4QvmKz3ChBfNW--33" target="KIqZfC4QvmKz3ChBfNW--35" edge="1">
          <mxGeometry width="50" height="50" relative="1" as="geometry">
            <mxPoint x="1290" y="300" as="sourcePoint" />
            <mxPoint x="1340" y="250" as="targetPoint" />
          </mxGeometry>
        </mxCell>
        <mxCell id="KIqZfC4QvmKz3ChBfNW--38" value="" style="endArrow=none;html=1;rounded=0;exitX=0.5;exitY=0;exitDx=0;exitDy=0;" parent="1" source="KIqZfC4QvmKz3ChBfNW--35" edge="1">
          <mxGeometry width="50" height="50" relative="1" as="geometry">
            <mxPoint x="1290" y="300" as="sourcePoint" />
            <mxPoint x="1360" y="240" as="targetPoint" />
          </mxGeometry>
        </mxCell>
        <mxCell id="EFFLVUITV1ritFmUOYrr-41" value="Database" style="strokeWidth=2;html=1;shape=mxgraph.flowchart.database;whiteSpace=wrap;" parent="1" vertex="1">
          <mxGeometry x="-312.41999999999996" y="2478.75" width="95" height="60" as="geometry" />
        </mxCell>
        <mxCell id="KIqZfC4QvmKz3ChBfNW--39" value="" style="endArrow=classic;html=1;rounded=0;entryX=1;entryY=0.5;entryDx=0;entryDy=0;" parent="1" target="KIqZfC4QvmKz3ChBfNW--32" edge="1">
          <mxGeometry width="50" height="50" relative="1" as="geometry">
            <mxPoint x="1360" y="240" as="sourcePoint" />
            <mxPoint x="1340" y="250" as="targetPoint" />
          </mxGeometry>
        </mxCell>
        <mxCell id="KIqZfC4QvmKz3ChBfNW--40" value="" style="endArrow=none;html=1;rounded=0;entryX=0.5;entryY=1;entryDx=0;entryDy=0;" parent="1" target="KIqZfC4QvmKz3ChBfNW--35" edge="1">
          <mxGeometry width="50" height="50" relative="1" as="geometry">
            <mxPoint x="1360" y="460" as="sourcePoint" />
            <mxPoint x="1340" y="250" as="targetPoint" />
          </mxGeometry>
        </mxCell>
        <mxCell id="EFFLVUITV1ritFmUOYrr-42" style="edgeStyle=orthogonalEdgeStyle;rounded=0;orthogonalLoop=1;jettySize=auto;html=1;exitX=0.5;exitY=1;exitDx=0;exitDy=0;entryX=0.5;entryY=0;entryDx=0;entryDy=0;entryPerimeter=0;" parent="1" source="EFFLVUITV1ritFmUOYrr-35" target="EFFLVUITV1ritFmUOYrr-41" edge="1">
          <mxGeometry relative="1" as="geometry" />
        </mxCell>
        <mxCell id="KIqZfC4QvmKz3ChBfNW--41" value="3. Review Majelis Pendamping" style="shape=process;whiteSpace=wrap;html=1;backgroundOutline=1;" parent="1" vertex="1">
          <mxGeometry x="1130" y="440" width="150" height="80" as="geometry" />
        </mxCell>
        <mxCell id="KIqZfC4QvmKz3ChBfNW--42" value="" style="endArrow=classic;html=1;rounded=0;exitX=0.5;exitY=1;exitDx=0;exitDy=0;entryX=0.5;entryY=0;entryDx=0;entryDy=0;" parent="1" source="KIqZfC4QvmKz3ChBfNW--33" target="KIqZfC4QvmKz3ChBfNW--41" edge="1">
          <mxGeometry width="50" height="50" relative="1" as="geometry">
            <mxPoint x="1450" y="310" as="sourcePoint" />
            <mxPoint x="1450" y="350" as="targetPoint" />
          </mxGeometry>
        </mxCell>
        <mxCell id="KIqZfC4QvmKz3ChBfNW--43" value="" style="endArrow=classic;html=1;rounded=0;entryX=1;entryY=0.25;entryDx=0;entryDy=0;" parent="1" target="KIqZfC4QvmKz3ChBfNW--41" edge="1">
          <mxGeometry width="50" height="50" relative="1" as="geometry">
            <mxPoint x="1360" y="460" as="sourcePoint" />
            <mxPoint x="1340" y="370" as="targetPoint" />
          </mxGeometry>
        </mxCell>
        <mxCell id="KIqZfC4QvmKz3ChBfNW--44" value="Revise/Reject" style="text;html=1;align=center;verticalAlign=middle;whiteSpace=wrap;rounded=0;" parent="1" vertex="1">
          <mxGeometry x="1310" y="270" width="135" height="30" as="geometry" />
        </mxCell>
        <mxCell id="EFFLVUITV1ritFmUOYrr-52" style="edgeStyle=orthogonalEdgeStyle;rounded=0;orthogonalLoop=1;jettySize=auto;html=1;" parent="1" source="EFFLVUITV1ritFmUOYrr-46" target="EFFLVUITV1ritFmUOYrr-48" edge="1">
          <mxGeometry relative="1" as="geometry" />
        </mxCell>
        <mxCell id="EFFLVUITV1ritFmUOYrr-46" value="&lt;div&gt;&lt;span style=&quot;&quot;&gt;&lt;b&gt;INPUT&lt;/b&gt;&lt;/span&gt;&lt;/div&gt;Upload Kwitansi/Dokumen Pendukung Lainnya" style="shape=parallelogram;perimeter=parallelogramPerimeter;whiteSpace=wrap;html=1;fixedSize=1;align=center;" parent="1" vertex="1">
          <mxGeometry x="795" y="2185" width="190" height="60" as="geometry" />
        </mxCell>
        <mxCell id="KIqZfC4QvmKz3ChBfNW--45" value="Approve" style="text;html=1;align=center;verticalAlign=middle;whiteSpace=wrap;rounded=0;" parent="1" vertex="1">
          <mxGeometry x="1350" y="425" width="60" height="30" as="geometry" />
        </mxCell>
        <mxCell id="KIqZfC4QvmKz3ChBfNW--46" value="Approve Revise&lt;div&gt;Reject&lt;/div&gt;" style="rhombus;whiteSpace=wrap;html=1;" parent="1" vertex="1">
          <mxGeometry x="1320" y="560" width="80" height="80" as="geometry" />
        </mxCell>
        <mxCell id="KIqZfC4QvmKz3ChBfNW--50" value="4. Review Bendahara Majelis" style="shape=process;whiteSpace=wrap;html=1;backgroundOutline=1;" parent="1" vertex="1">
          <mxGeometry x="1130" y="560" width="150" height="80" as="geometry" />
        </mxCell>
        <mxCell id="KIqZfC4QvmKz3ChBfNW--51" value="" style="endArrow=classic;html=1;rounded=0;exitX=0.5;exitY=1;exitDx=0;exitDy=0;entryX=0.5;entryY=0;entryDx=0;entryDy=0;" parent="1" source="KIqZfC4QvmKz3ChBfNW--41" target="KIqZfC4QvmKz3ChBfNW--50" edge="1">
          <mxGeometry width="50" height="50" relative="1" as="geometry">
            <mxPoint x="1290" y="550" as="sourcePoint" />
            <mxPoint x="1340" y="500" as="targetPoint" />
          </mxGeometry>
        </mxCell>
        <mxCell id="KIqZfC4QvmKz3ChBfNW--53" value="5. Kasir create Voucher" style="shape=process;whiteSpace=wrap;html=1;backgroundOutline=1;" parent="1" vertex="1">
          <mxGeometry x="1130" y="670" width="150" height="80" as="geometry" />
        </mxCell>
        <mxCell id="EFFLVUITV1ritFmUOYrr-54" style="edgeStyle=orthogonalEdgeStyle;rounded=0;orthogonalLoop=1;jettySize=auto;html=1;entryX=0.5;entryY=0;entryDx=0;entryDy=0;entryPerimeter=0;" parent="1" source="EFFLVUITV1ritFmUOYrr-51" target="EFFLVUITV1ritFmUOYrr-55" edge="1">
          <mxGeometry relative="1" as="geometry">
            <mxPoint x="832.5" y="2340" as="targetPoint" />
          </mxGeometry>
        </mxCell>
        <mxCell id="EFFLVUITV1ritFmUOYrr-51" value="&lt;div&gt;&lt;span style=&quot;&quot;&gt;&lt;b&gt;OUTPUT&lt;/b&gt;&lt;/span&gt;&lt;/div&gt;&lt;div&gt;yyyy/mm/kode komisi/no. PDK&lt;/div&gt;&lt;div&gt;Contoh : 2025/06/110/015&lt;/div&gt;&lt;div&gt;No. PDM : Auto Increment 3 digit &amp;amp; &lt;br&gt;Reset kembali ke 000 setelah awal bulan&lt;/div&gt;" style="shape=parallelogram;perimeter=parallelogramPerimeter;whiteSpace=wrap;html=1;fixedSize=1;align=center;" parent="1" vertex="1">
          <mxGeometry x="700" y="2370" width="380" height="80" as="geometry" />
        </mxCell>
        <mxCell id="EFFLVUITV1ritFmUOYrr-55" value="Database" style="strokeWidth=2;html=1;shape=mxgraph.flowchart.database;whiteSpace=wrap;" parent="1" vertex="1">
          <mxGeometry x="842.5" y="2485" width="95" height="60" as="geometry" />
        </mxCell>
        <mxCell id="KIqZfC4QvmKz3ChBfNW--57" value="" style="endArrow=none;html=1;rounded=0;entryX=0.5;entryY=1;entryDx=0;entryDy=0;" parent="1" edge="1">
          <mxGeometry width="50" height="50" relative="1" as="geometry">
            <mxPoint x="1360" y="700" as="sourcePoint" />
            <mxPoint x="1360" y="640" as="targetPoint" />
          </mxGeometry>
        </mxCell>
        <mxCell id="KIqZfC4QvmKz3ChBfNW--58" value="" style="endArrow=classic;html=1;rounded=0;entryX=1;entryY=0.25;entryDx=0;entryDy=0;" parent="1" edge="1">
          <mxGeometry width="50" height="50" relative="1" as="geometry">
            <mxPoint x="1360" y="700" as="sourcePoint" />
            <mxPoint x="1280" y="700" as="targetPoint" />
          </mxGeometry>
        </mxCell>
        <mxCell id="EFFLVUITV1ritFmUOYrr-53" style="edgeStyle=orthogonalEdgeStyle;rounded=0;orthogonalLoop=1;jettySize=auto;html=1;" parent="1" source="EFFLVUITV1ritFmUOYrr-48" target="EFFLVUITV1ritFmUOYrr-51" edge="1">
          <mxGeometry relative="1" as="geometry" />
        </mxCell>
        <mxCell id="EFFLVUITV1ritFmUOYrr-43" value="Pilih Nomor PDK" style="rounded=1;whiteSpace=wrap;html=1;absoluteArcSize=1;arcSize=14;strokeWidth=2;" parent="1" vertex="1">
          <mxGeometry x="787.5" y="2100" width="205" height="40" as="geometry" />
        </mxCell>
        <mxCell id="EFFLVUITV1ritFmUOYrr-48" value="Submit PDM" style="rounded=1;whiteSpace=wrap;html=1;" parent="1" vertex="1">
          <mxGeometry x="818.75" y="2280" width="142.5" height="50" as="geometry" />
        </mxCell>
        <mxCell id="KIqZfC4QvmKz3ChBfNW--56" value="" style="endArrow=classic;html=1;rounded=0;exitX=1;exitY=0.5;exitDx=0;exitDy=0;" parent="1" source="KIqZfC4QvmKz3ChBfNW--50" target="KIqZfC4QvmKz3ChBfNW--46" edge="1">
          <mxGeometry width="50" height="50" relative="1" as="geometry">
            <mxPoint x="1290" y="550" as="sourcePoint" />
            <mxPoint x="1340" y="500" as="targetPoint" />
          </mxGeometry>
        </mxCell>
        <mxCell id="KIqZfC4QvmKz3ChBfNW--59" value="Approve" style="text;html=1;align=center;verticalAlign=middle;whiteSpace=wrap;rounded=0;" parent="1" vertex="1">
          <mxGeometry x="1350" y="665" width="60" height="30" as="geometry" />
        </mxCell>
        <mxCell id="EFFLVUITV1ritFmUOYrr-47" style="edgeStyle=orthogonalEdgeStyle;rounded=0;orthogonalLoop=1;jettySize=auto;html=1;" parent="1" source="EFFLVUITV1ritFmUOYrr-43" target="EFFLVUITV1ritFmUOYrr-46" edge="1">
          <mxGeometry relative="1" as="geometry" />
        </mxCell>
        <mxCell id="KIqZfC4QvmKz3ChBfNW--60" value="" style="endArrow=none;html=1;rounded=0;exitX=0.5;exitY=0;exitDx=0;exitDy=0;" parent="1" edge="1">
          <mxGeometry width="50" height="50" relative="1" as="geometry">
            <mxPoint x="1360" y="560" as="sourcePoint" />
            <mxPoint x="1360" y="480" as="targetPoint" />
          </mxGeometry>
        </mxCell>
        <mxCell id="KIqZfC4QvmKz3ChBfNW--61" value="" style="endArrow=classic;html=1;rounded=0;entryX=1;entryY=0.5;entryDx=0;entryDy=0;" parent="1" edge="1">
          <mxGeometry width="50" height="50" relative="1" as="geometry">
            <mxPoint x="1360" y="480" as="sourcePoint" />
            <mxPoint x="1280" y="480" as="targetPoint" />
          </mxGeometry>
        </mxCell>
        <mxCell id="KIqZfC4QvmKz3ChBfNW--62" value="Revise/Reject" style="text;html=1;align=center;verticalAlign=middle;whiteSpace=wrap;rounded=0;" parent="1" vertex="1">
          <mxGeometry x="1310" y="510" width="135" height="30" as="geometry" />
        </mxCell>
        <mxCell id="KIqZfC4QvmKz3ChBfNW--63" value="" style="endArrow=none;dashed=1;html=1;dashPattern=1 3;strokeWidth=2;rounded=0;" parent="1" edge="1">
          <mxGeometry width="50" height="50" relative="1" as="geometry">
            <mxPoint x="1500" y="780" as="sourcePoint" />
            <mxPoint x="1500" y="90" as="targetPoint" />
          </mxGeometry>
        </mxCell>
        <mxCell id="KIqZfC4QvmKz3ChBfNW--64" value="Menu Create Voucher untuk Kasir" style="text;html=1;align=center;verticalAlign=middle;whiteSpace=wrap;rounded=0;" parent="1" vertex="1">
          <mxGeometry x="1640" y="140" width="135" height="30" as="geometry" />
        </mxCell>
        <mxCell id="KIqZfC4QvmKz3ChBfNW--65" value="Status" style="text;html=1;align=center;verticalAlign=middle;whiteSpace=wrap;rounded=0;" parent="1" vertex="1">
          <mxGeometry x="2000" y="140" width="135" height="30" as="geometry" />
        </mxCell>
        <mxCell id="KIqZfC4QvmKz3ChBfNW--66" value="Login" style="strokeWidth=2;html=1;shape=mxgraph.flowchart.start_2;whiteSpace=wrap;" parent="1" vertex="1">
          <mxGeometry x="1677.5" y="220" width="60" height="60" as="geometry" />
        </mxCell>
        <mxCell id="KIqZfC4QvmKz3ChBfNW--67" value="" style="endArrow=classic;html=1;rounded=0;exitX=0.5;exitY=1;exitDx=0;exitDy=0;exitPerimeter=0;entryX=0.5;entryY=0;entryDx=0;entryDy=0;" parent="1" source="KIqZfC4QvmKz3ChBfNW--66" target="KIqZfC4QvmKz3ChBfNW--68" edge="1">
          <mxGeometry width="50" height="50" relative="1" as="geometry">
            <mxPoint x="1710.92" y="280" as="sourcePoint" />
            <mxPoint x="1704.0900000000001" y="320" as="targetPoint" />
          </mxGeometry>
        </mxCell>
        <mxCell id="KIqZfC4QvmKz3ChBfNW--68" value="Pilih Nomor PDK yang sudah disetujui Bendahara Majelis" style="rounded=1;whiteSpace=wrap;html=1;absoluteArcSize=1;arcSize=14;strokeWidth=2;" parent="1" vertex="1">
          <mxGeometry x="1605" y="330" width="205" height="40" as="geometry" />
        </mxCell>
        <mxCell id="SoC1jfsHHSgu_TZqrIKz-62" style="edgeStyle=orthogonalEdgeStyle;rounded=0;orthogonalLoop=1;jettySize=auto;html=1;exitX=0.5;exitY=1;exitDx=0;exitDy=0;entryX=0.5;entryY=0;entryDx=0;entryDy=0;" parent="1" source="KIqZfC4QvmKz3ChBfNW--69" target="KIqZfC4QvmKz3ChBfNW--77" edge="1">
          <mxGeometry relative="1" as="geometry" />
        </mxCell>
        <mxCell id="KIqZfC4QvmKz3ChBfNW--69" value="Metode Pembayaran (BCA, MDR, KAS)" style="rounded=1;whiteSpace=wrap;html=1;absoluteArcSize=1;arcSize=14;strokeWidth=2;" parent="1" vertex="1">
          <mxGeometry x="1605" y="400" width="205" height="40" as="geometry" />
        </mxCell>
        <mxCell id="KIqZfC4QvmKz3ChBfNW--70" value="" style="endArrow=classic;html=1;rounded=0;exitX=0.5;exitY=1;exitDx=0;exitDy=0;entryX=0.5;entryY=0;entryDx=0;entryDy=0;" parent="1" source="KIqZfC4QvmKz3ChBfNW--68" target="KIqZfC4QvmKz3ChBfNW--69" edge="1">
          <mxGeometry width="50" height="50" relative="1" as="geometry">
            <mxPoint x="1730" y="400" as="sourcePoint" />
            <mxPoint x="1780" y="350" as="targetPoint" />
          </mxGeometry>
        </mxCell>
        <mxCell id="KIqZfC4QvmKz3ChBfNW--71" value="&lt;div&gt;Metode Pembayaran/Keterangan/yyyy/mm/kode komisi/no. Voucher&lt;/div&gt;&lt;div&gt;Contoh : BCA/BK/2025/06/110/015&lt;/div&gt;&lt;div&gt;No. Voucher : Auto Increment 3 digit &amp;amp; Reset kembali ke 000 setelah awal bulan&lt;/div&gt;" style="rounded=1;whiteSpace=wrap;html=1;" parent="1" vertex="1">
          <mxGeometry x="1582.5" y="530" width="250" height="100" as="geometry" />
        </mxCell>
        <mxCell id="KIqZfC4QvmKz3ChBfNW--73" value="" style="rounded=0;orthogonalLoop=1;jettySize=auto;html=1;" parent="1" source="KIqZfC4QvmKz3ChBfNW--74" target="KIqZfC4QvmKz3ChBfNW--75" edge="1">
          <mxGeometry relative="1" as="geometry" />
        </mxCell>
        <mxCell id="KIqZfC4QvmKz3ChBfNW--74" value="Submit Voucher" style="rounded=1;whiteSpace=wrap;html=1;" parent="1" vertex="1">
          <mxGeometry x="1647.5" y="650" width="120" height="40" as="geometry" />
        </mxCell>
        <mxCell id="KIqZfC4QvmKz3ChBfNW--75" value="Tersimpan di database" style="rounded=1;whiteSpace=wrap;html=1;" parent="1" vertex="1">
          <mxGeometry x="1647.5" y="710" width="120" height="40" as="geometry" />
        </mxCell>
        <mxCell id="KIqZfC4QvmKz3ChBfNW--76" value="" style="endArrow=classic;html=1;rounded=0;exitX=0.5;exitY=1;exitDx=0;exitDy=0;entryX=0.5;entryY=0;entryDx=0;entryDy=0;" parent="1" source="KIqZfC4QvmKz3ChBfNW--71" target="KIqZfC4QvmKz3ChBfNW--74" edge="1">
          <mxGeometry width="50" height="50" relative="1" as="geometry">
            <mxPoint x="1720" y="820" as="sourcePoint" />
            <mxPoint x="1720" y="850" as="targetPoint" />
          </mxGeometry>
        </mxCell>
        <mxCell id="SoC1jfsHHSgu_TZqrIKz-63" style="edgeStyle=orthogonalEdgeStyle;rounded=0;orthogonalLoop=1;jettySize=auto;html=1;exitX=0.5;exitY=1;exitDx=0;exitDy=0;entryX=0.5;entryY=0;entryDx=0;entryDy=0;" parent="1" source="KIqZfC4QvmKz3ChBfNW--77" target="KIqZfC4QvmKz3ChBfNW--71" edge="1">
          <mxGeometry relative="1" as="geometry" />
        </mxCell>
        <mxCell id="KIqZfC4QvmKz3ChBfNW--77" value="Pilih keterangan:&lt;div&gt;Bank Masuk (BM) / Bank Keluar (BK) / Kas Masuk (KM) / Kas Keluar (KK)&lt;/div&gt;" style="rounded=1;whiteSpace=wrap;html=1;absoluteArcSize=1;arcSize=14;strokeWidth=2;" parent="1" vertex="1">
          <mxGeometry x="1605" y="460" width="205" height="50" as="geometry" />
        </mxCell>
        <mxCell id="KIqZfC4QvmKz3ChBfNW--78" value="" style="endArrow=none;dashed=1;html=1;dashPattern=1 3;strokeWidth=2;rounded=0;" parent="1" edge="1">
          <mxGeometry width="50" height="50" relative="1" as="geometry">
            <mxPoint x="1910" y="810" as="sourcePoint" />
            <mxPoint x="1910" y="120" as="targetPoint" />
          </mxGeometry>
        </mxCell>
        <mxCell id="KIqZfC4QvmKz3ChBfNW--79" value="Pengajuan Dana:&lt;div&gt;1. Diperiksa&lt;/div&gt;&lt;div&gt;2. Disetujui&lt;/div&gt;&lt;div&gt;3. Ditolak&lt;/div&gt;&lt;div&gt;4. DItunda&lt;/div&gt;" style="rounded=0;whiteSpace=wrap;html=1;" parent="1" vertex="1">
          <mxGeometry x="1990" y="210" width="130" height="90" as="geometry" />
        </mxCell>
        <mxCell id="KIqZfC4QvmKz3ChBfNW--80" value="Voucher:&lt;div&gt;1. Diproes&lt;/div&gt;&lt;div&gt;2. Dicairkan&lt;/div&gt;" style="rounded=0;whiteSpace=wrap;html=1;" parent="1" vertex="1">
          <mxGeometry x="1990" y="355" width="130" height="65" as="geometry" />
        </mxCell>
        <mxCell id="SoC1jfsHHSgu_TZqrIKz-5" value="Proses Approval" style="text;html=1;align=center;verticalAlign=middle;whiteSpace=wrap;rounded=0;" parent="1" vertex="1">
          <mxGeometry x="1260" y="870" width="135" height="30" as="geometry" />
        </mxCell>
        <mxCell id="SoC1jfsHHSgu_TZqrIKz-61" style="edgeStyle=orthogonalEdgeStyle;rounded=0;orthogonalLoop=1;jettySize=auto;html=1;exitX=1;exitY=0.5;exitDx=0;exitDy=0;entryX=0;entryY=0.5;entryDx=0;entryDy=0;" parent="1" source="SoC1jfsHHSgu_TZqrIKz-6" target="SoC1jfsHHSgu_TZqrIKz-14" edge="1">
          <mxGeometry relative="1" as="geometry">
            <Array as="points">
              <mxPoint x="1310" y="970" />
              <mxPoint x="1310" y="910" />
              <mxPoint x="990" y="910" />
              <mxPoint x="990" y="1210" />
            </Array>
          </mxGeometry>
        </mxCell>
        <mxCell id="SoC1jfsHHSgu_TZqrIKz-6" value="1. Bendahara Komisi / Panitia submit PDK/PDM" style="shape=process;whiteSpace=wrap;html=1;backgroundOutline=1;" parent="1" vertex="1">
          <mxGeometry x="1130" y="930" width="150" height="80" as="geometry" />
        </mxCell>
        <mxCell id="SoC1jfsHHSgu_TZqrIKz-7" value="2. Review Ketua Komisi/Panitia" style="shape=process;whiteSpace=wrap;html=1;backgroundOutline=1;" parent="1" vertex="1">
          <mxGeometry x="1130" y="1050" width="150" height="80" as="geometry" />
        </mxCell>
        <mxCell id="SoC1jfsHHSgu_TZqrIKz-38" style="edgeStyle=orthogonalEdgeStyle;rounded=0;orthogonalLoop=1;jettySize=auto;html=1;exitX=1;exitY=0.5;exitDx=0;exitDy=0;entryX=1;entryY=0.75;entryDx=0;entryDy=0;fillColor=#d5e8d4;strokeColor=#82b366;" parent="1" target="SoC1jfsHHSgu_TZqrIKz-22" edge="1">
          <mxGeometry relative="1" as="geometry">
            <mxPoint x="1260.0500000000004" y="1570" as="targetPoint" />
            <mxPoint x="1380.05" y="1090" as="sourcePoint" />
            <Array as="points">
              <mxPoint x="1460" y="1090" />
              <mxPoint x="1460" y="1470" />
            </Array>
          </mxGeometry>
        </mxCell>
        <mxCell id="SoC1jfsHHSgu_TZqrIKz-43" style="edgeStyle=orthogonalEdgeStyle;rounded=0;orthogonalLoop=1;jettySize=auto;html=1;exitX=0.5;exitY=0;exitDx=0;exitDy=0;entryX=0;entryY=0.75;entryDx=0;entryDy=0;fillColor=#f8cecc;strokeColor=#b85450;" parent="1" source="SoC1jfsHHSgu_TZqrIKz-9" target="SoC1jfsHHSgu_TZqrIKz-6" edge="1">
          <mxGeometry relative="1" as="geometry" />
        </mxCell>
        <mxCell id="SoC1jfsHHSgu_TZqrIKz-9" value="Approve Revise&lt;div&gt;Reject&lt;/div&gt;" style="rhombus;whiteSpace=wrap;html=1;" parent="1" vertex="1">
          <mxGeometry x="1320" y="1050" width="80" height="80" as="geometry" />
        </mxCell>
        <mxCell id="SoC1jfsHHSgu_TZqrIKz-10" value="" style="endArrow=classic;html=1;rounded=0;exitX=1;exitY=0.5;exitDx=0;exitDy=0;entryX=0;entryY=0.5;entryDx=0;entryDy=0;" parent="1" source="SoC1jfsHHSgu_TZqrIKz-7" target="SoC1jfsHHSgu_TZqrIKz-9" edge="1">
          <mxGeometry width="50" height="50" relative="1" as="geometry">
            <mxPoint x="1290" y="1030" as="sourcePoint" />
            <mxPoint x="1340" y="980" as="targetPoint" />
          </mxGeometry>
        </mxCell>
        <mxCell id="SoC1jfsHHSgu_TZqrIKz-14" value="3. Review Majelis Pendamping" style="shape=process;whiteSpace=wrap;html=1;backgroundOutline=1;" parent="1" vertex="1">
          <mxGeometry x="1130" y="1170" width="150" height="80" as="geometry" />
        </mxCell>
        <mxCell id="SoC1jfsHHSgu_TZqrIKz-48" style="edgeStyle=orthogonalEdgeStyle;rounded=0;orthogonalLoop=1;jettySize=auto;html=1;exitX=0.5;exitY=0;exitDx=0;exitDy=0;entryX=0;entryY=0.25;entryDx=0;entryDy=0;fillColor=#f8cecc;strokeColor=#b85450;" parent="1" source="SoC1jfsHHSgu_TZqrIKz-19" target="SoC1jfsHHSgu_TZqrIKz-6" edge="1">
          <mxGeometry relative="1" as="geometry">
            <Array as="points">
              <mxPoint x="1360" y="1270" />
              <mxPoint x="1090" y="1270" />
              <mxPoint x="1090" y="950" />
            </Array>
          </mxGeometry>
        </mxCell>
        <mxCell id="SoC1jfsHHSgu_TZqrIKz-50" style="edgeStyle=orthogonalEdgeStyle;rounded=0;orthogonalLoop=1;jettySize=auto;html=1;exitX=1;exitY=0.5;exitDx=0;exitDy=0;entryX=1;entryY=0.25;entryDx=0;entryDy=0;fillColor=#d5e8d4;strokeColor=#82b366;" parent="1" source="SoC1jfsHHSgu_TZqrIKz-19" target="SoC1jfsHHSgu_TZqrIKz-22" edge="1">
          <mxGeometry relative="1" as="geometry" />
        </mxCell>
        <mxCell id="SoC1jfsHHSgu_TZqrIKz-19" value="Approve Revise&lt;div&gt;Reject&lt;/div&gt;" style="rhombus;whiteSpace=wrap;html=1;" parent="1" vertex="1">
          <mxGeometry x="1320" y="1300" width="80" height="80" as="geometry" />
        </mxCell>
        <mxCell id="SoC1jfsHHSgu_TZqrIKz-20" value="4. Review Bendahara Majelis" style="shape=process;whiteSpace=wrap;html=1;backgroundOutline=1;" parent="1" vertex="1">
          <mxGeometry x="1130" y="1300" width="150" height="80" as="geometry" />
        </mxCell>
        <mxCell id="SoC1jfsHHSgu_TZqrIKz-22" value="5. Kasir create Voucher" style="shape=process;whiteSpace=wrap;html=1;backgroundOutline=1;" parent="1" vertex="1">
          <mxGeometry x="1130" y="1410" width="150" height="80" as="geometry" />
        </mxCell>
        <mxCell id="SoC1jfsHHSgu_TZqrIKz-25" value="" style="endArrow=classic;html=1;rounded=0;exitX=1;exitY=0.5;exitDx=0;exitDy=0;" parent="1" source="SoC1jfsHHSgu_TZqrIKz-20" target="SoC1jfsHHSgu_TZqrIKz-19" edge="1">
          <mxGeometry width="50" height="50" relative="1" as="geometry">
            <mxPoint x="1290" y="1290" as="sourcePoint" />
            <mxPoint x="1340" y="1240" as="targetPoint" />
          </mxGeometry>
        </mxCell>
        <mxCell id="SoC1jfsHHSgu_TZqrIKz-26" value="Approve" style="text;html=1;align=center;verticalAlign=middle;whiteSpace=wrap;rounded=0;fontColor=light-dark(#000000,#00FF00);" parent="1" vertex="1">
          <mxGeometry x="1297.5" y="1435" width="60" height="30" as="geometry" />
        </mxCell>
        <mxCell id="SoC1jfsHHSgu_TZqrIKz-39" style="edgeStyle=orthogonalEdgeStyle;rounded=0;orthogonalLoop=1;jettySize=auto;html=1;exitX=1;exitY=0.5;exitDx=0;exitDy=0;entryX=1;entryY=0.5;entryDx=0;entryDy=0;fillColor=#d5e8d4;strokeColor=#82b366;" parent="1" source="SoC1jfsHHSgu_TZqrIKz-30" target="SoC1jfsHHSgu_TZqrIKz-22" edge="1">
          <mxGeometry relative="1" as="geometry">
            <Array as="points">
              <mxPoint x="1440" y="1210" />
              <mxPoint x="1440" y="1450" />
            </Array>
          </mxGeometry>
        </mxCell>
        <mxCell id="SoC1jfsHHSgu_TZqrIKz-44" style="edgeStyle=orthogonalEdgeStyle;rounded=0;orthogonalLoop=1;jettySize=auto;html=1;exitX=0.5;exitY=0;exitDx=0;exitDy=0;entryX=0;entryY=0.5;entryDx=0;entryDy=0;fillColor=#f8cecc;strokeColor=#b85450;" parent="1" source="SoC1jfsHHSgu_TZqrIKz-30" target="SoC1jfsHHSgu_TZqrIKz-6" edge="1">
          <mxGeometry relative="1" as="geometry">
            <Array as="points">
              <mxPoint x="1360" y="1150" />
              <mxPoint x="1100" y="1150" />
              <mxPoint x="1100" y="970" />
            </Array>
          </mxGeometry>
        </mxCell>
        <mxCell id="SoC1jfsHHSgu_TZqrIKz-30" value="Approve Revise&lt;div&gt;Reject&lt;/div&gt;" style="rhombus;whiteSpace=wrap;html=1;" parent="1" vertex="1">
          <mxGeometry x="1320" y="1170" width="80" height="80" as="geometry" />
        </mxCell>
        <mxCell id="SoC1jfsHHSgu_TZqrIKz-31" value="" style="endArrow=classic;html=1;rounded=0;exitX=1;exitY=0.5;exitDx=0;exitDy=0;entryX=0;entryY=0.5;entryDx=0;entryDy=0;" parent="1" source="SoC1jfsHHSgu_TZqrIKz-14" target="SoC1jfsHHSgu_TZqrIKz-30" edge="1">
          <mxGeometry width="50" height="50" relative="1" as="geometry">
            <mxPoint x="1280" y="1207" as="sourcePoint" />
            <mxPoint x="1350" y="1097" as="targetPoint" />
          </mxGeometry>
        </mxCell>
        <mxCell id="SoC1jfsHHSgu_TZqrIKz-45" value="Revise/Reject" style="text;html=1;align=center;verticalAlign=middle;whiteSpace=wrap;rounded=0;fontColor=light-dark(#000000,#FF0000);" parent="1" vertex="1">
          <mxGeometry x="981" y="935" width="135" height="30" as="geometry" />
        </mxCell>
        <mxCell id="SoC1jfsHHSgu_TZqrIKz-55" value="Submit" style="text;html=1;align=center;verticalAlign=middle;whiteSpace=wrap;rounded=0;" parent="1" vertex="1">
          <mxGeometry x="1265" y="955" width="135" height="30" as="geometry" />
        </mxCell>
        <mxCell id="SoC1jfsHHSgu_TZqrIKz-57" style="edgeStyle=orthogonalEdgeStyle;rounded=0;orthogonalLoop=1;jettySize=auto;html=1;exitX=1;exitY=0.5;exitDx=0;exitDy=0;entryX=0;entryY=0.5;entryDx=0;entryDy=0;" parent="1" source="SoC1jfsHHSgu_TZqrIKz-6" target="SoC1jfsHHSgu_TZqrIKz-7" edge="1">
          <mxGeometry relative="1" as="geometry">
            <mxPoint x="970" y="1110" as="targetPoint" />
            <Array as="points">
              <mxPoint x="1310" y="970" />
              <mxPoint x="1310" y="910" />
              <mxPoint x="990" y="910" />
              <mxPoint x="990" y="1090" />
            </Array>
          </mxGeometry>
        </mxCell>
        <mxCell id="SoC1jfsHHSgu_TZqrIKz-58" style="edgeStyle=orthogonalEdgeStyle;rounded=0;orthogonalLoop=1;jettySize=auto;html=1;exitX=1;exitY=0.5;exitDx=0;exitDy=0;entryX=0;entryY=0.5;entryDx=0;entryDy=0;" parent="1" source="SoC1jfsHHSgu_TZqrIKz-6" target="SoC1jfsHHSgu_TZqrIKz-20" edge="1">
          <mxGeometry relative="1" as="geometry">
            <Array as="points">
              <mxPoint x="1310" y="970" />
              <mxPoint x="1310" y="910" />
              <mxPoint x="990" y="910" />
              <mxPoint x="990" y="1340" />
            </Array>
          </mxGeometry>
        </mxCell>
        <mxCell id="SoC1jfsHHSgu_TZqrIKz-59" style="edgeStyle=orthogonalEdgeStyle;rounded=0;orthogonalLoop=1;jettySize=auto;html=1;exitX=1;exitY=0.5;exitDx=0;exitDy=0;entryX=0;entryY=0.5;entryDx=0;entryDy=0;" parent="1" source="SoC1jfsHHSgu_TZqrIKz-6" target="SoC1jfsHHSgu_TZqrIKz-20" edge="1">
          <mxGeometry relative="1" as="geometry">
            <Array as="points">
              <mxPoint x="1310" y="970" />
              <mxPoint x="1310" y="910" />
              <mxPoint x="990" y="910" />
              <mxPoint x="990" y="1340" />
            </Array>
          </mxGeometry>
        </mxCell>
        <mxCell id="SoC1jfsHHSgu_TZqrIKz-60" style="edgeStyle=orthogonalEdgeStyle;rounded=0;orthogonalLoop=1;jettySize=auto;html=1;exitX=1;exitY=0.5;exitDx=0;exitDy=0;entryX=0;entryY=0.5;entryDx=0;entryDy=0;" parent="1" source="SoC1jfsHHSgu_TZqrIKz-6" target="SoC1jfsHHSgu_TZqrIKz-20" edge="1">
          <mxGeometry relative="1" as="geometry">
            <Array as="points">
              <mxPoint x="1310" y="970" />
              <mxPoint x="1310" y="910" />
              <mxPoint x="990" y="910" />
              <mxPoint x="990" y="1340" />
            </Array>
          </mxGeometry>
        </mxCell>
        <mxCell id="kk42pE79QCRUeC5nkYzR-1" value="Pilih Nomor PDK yang sudah disetujui Bendahara Majelis" style="rounded=1;whiteSpace=wrap;html=1;absoluteArcSize=1;arcSize=14;strokeWidth=2;" vertex="1" parent="1">
          <mxGeometry x="1605" y="2105" width="205" height="40" as="geometry" />
        </mxCell>
        <mxCell id="kk42pE79QCRUeC5nkYzR-2" style="edgeStyle=orthogonalEdgeStyle;rounded=0;orthogonalLoop=1;jettySize=auto;html=1;exitX=0.5;exitY=1;exitDx=0;exitDy=0;entryX=0.5;entryY=0;entryDx=0;entryDy=0;" edge="1" parent="1" source="kk42pE79QCRUeC5nkYzR-3" target="kk42pE79QCRUeC5nkYzR-11">
          <mxGeometry relative="1" as="geometry" />
        </mxCell>
        <mxCell id="kk42pE79QCRUeC5nkYzR-3" value="Metode Pembayaran (BCA, MDR, KAS)" style="rounded=1;whiteSpace=wrap;html=1;absoluteArcSize=1;arcSize=14;strokeWidth=2;" vertex="1" parent="1">
          <mxGeometry x="1605" y="2175" width="205" height="40" as="geometry" />
        </mxCell>
        <mxCell id="kk42pE79QCRUeC5nkYzR-4" value="" style="endArrow=classic;html=1;rounded=0;exitX=0.5;exitY=1;exitDx=0;exitDy=0;entryX=0.5;entryY=0;entryDx=0;entryDy=0;" edge="1" parent="1" source="kk42pE79QCRUeC5nkYzR-1" target="kk42pE79QCRUeC5nkYzR-3">
          <mxGeometry width="50" height="50" relative="1" as="geometry">
            <mxPoint x="1730" y="2175" as="sourcePoint" />
            <mxPoint x="1780" y="2125" as="targetPoint" />
          </mxGeometry>
        </mxCell>
        <mxCell id="kk42pE79QCRUeC5nkYzR-5" value="&lt;div&gt;Metode Pembayaran/Keterangan/yyyy/mm/kode komisi/no. Voucher&lt;/div&gt;&lt;div&gt;Contoh : BCA/BK/2025/06/110/015&lt;/div&gt;&lt;div&gt;No. Voucher : Auto Increment 3 digit &amp;amp; Reset kembali ke 000 setelah awal bulan&lt;/div&gt;" style="rounded=1;whiteSpace=wrap;html=1;" vertex="1" parent="1">
          <mxGeometry x="1582.5" y="2305" width="250" height="100" as="geometry" />
        </mxCell>
        <mxCell id="kk42pE79QCRUeC5nkYzR-6" value="" style="rounded=0;orthogonalLoop=1;jettySize=auto;html=1;" edge="1" parent="1" source="kk42pE79QCRUeC5nkYzR-7" target="kk42pE79QCRUeC5nkYzR-8">
          <mxGeometry relative="1" as="geometry" />
        </mxCell>
        <mxCell id="kk42pE79QCRUeC5nkYzR-7" value="Submit Voucher" style="rounded=1;whiteSpace=wrap;html=1;" vertex="1" parent="1">
          <mxGeometry x="1647.5" y="2425" width="120" height="40" as="geometry" />
        </mxCell>
        <mxCell id="kk42pE79QCRUeC5nkYzR-8" value="Tersimpan di database" style="rounded=1;whiteSpace=wrap;html=1;" vertex="1" parent="1">
          <mxGeometry x="1647.5" y="2485" width="120" height="40" as="geometry" />
        </mxCell>
        <mxCell id="kk42pE79QCRUeC5nkYzR-9" value="" style="endArrow=classic;html=1;rounded=0;exitX=0.5;exitY=1;exitDx=0;exitDy=0;entryX=0.5;entryY=0;entryDx=0;entryDy=0;" edge="1" parent="1" source="kk42pE79QCRUeC5nkYzR-5" target="kk42pE79QCRUeC5nkYzR-7">
          <mxGeometry width="50" height="50" relative="1" as="geometry">
            <mxPoint x="1720" y="2595" as="sourcePoint" />
            <mxPoint x="1720" y="2625" as="targetPoint" />
          </mxGeometry>
        </mxCell>
        <mxCell id="kk42pE79QCRUeC5nkYzR-10" style="edgeStyle=orthogonalEdgeStyle;rounded=0;orthogonalLoop=1;jettySize=auto;html=1;exitX=0.5;exitY=1;exitDx=0;exitDy=0;entryX=0.5;entryY=0;entryDx=0;entryDy=0;" edge="1" parent="1" source="kk42pE79QCRUeC5nkYzR-11" target="kk42pE79QCRUeC5nkYzR-5">
          <mxGeometry relative="1" as="geometry" />
        </mxCell>
        <mxCell id="kk42pE79QCRUeC5nkYzR-11" value="Pilih keterangan:&lt;div&gt;Bank Masuk (BM) / Bank Keluar (BK) / Kas Masuk (KM) / Kas Keluar (KK)&lt;/div&gt;" style="rounded=1;whiteSpace=wrap;html=1;absoluteArcSize=1;arcSize=14;strokeWidth=2;" vertex="1" parent="1">
          <mxGeometry x="1605" y="2235" width="205" height="50" as="geometry" />
        </mxCell>
        <mxCell id="kk42pE79QCRUeC5nkYzR-20" style="edgeStyle=orthogonalEdgeStyle;rounded=0;orthogonalLoop=1;jettySize=auto;html=1;exitX=0;exitY=0.5;exitDx=0;exitDy=0;entryX=0.5;entryY=0;entryDx=0;entryDy=0;" edge="1" parent="1" source="kk42pE79QCRUeC5nkYzR-18" target="EFFLVUITV1ritFmUOYrr-22">
          <mxGeometry relative="1" as="geometry" />
        </mxCell>
        <mxCell id="kk42pE79QCRUeC5nkYzR-21" value="Bendahara/Panitia" style="edgeLabel;html=1;align=center;verticalAlign=middle;resizable=0;points=[];" vertex="1" connectable="0" parent="kk42pE79QCRUeC5nkYzR-20">
          <mxGeometry x="-0.2067" y="1" relative="1" as="geometry">
            <mxPoint as="offset" />
          </mxGeometry>
        </mxCell>
        <mxCell id="kk42pE79QCRUeC5nkYzR-27" style="edgeStyle=orthogonalEdgeStyle;rounded=0;orthogonalLoop=1;jettySize=auto;html=1;exitX=1;exitY=0.5;exitDx=0;exitDy=0;entryX=0.5;entryY=0;entryDx=0;entryDy=0;" edge="1" parent="1" source="kk42pE79QCRUeC5nkYzR-18" target="kk42pE79QCRUeC5nkYzR-22">
          <mxGeometry relative="1" as="geometry" />
        </mxCell>
        <mxCell id="kk42pE79QCRUeC5nkYzR-28" value="Text" style="edgeLabel;html=1;align=center;verticalAlign=middle;resizable=0;points=[];" vertex="1" connectable="0" parent="kk42pE79QCRUeC5nkYzR-27">
          <mxGeometry x="-0.1633" y="-1" relative="1" as="geometry">
            <mxPoint as="offset" />
          </mxGeometry>
        </mxCell>
        <mxCell id="kk42pE79QCRUeC5nkYzR-29" value="Kasir" style="edgeLabel;html=1;align=center;verticalAlign=middle;resizable=0;points=[];" vertex="1" connectable="0" parent="kk42pE79QCRUeC5nkYzR-27">
          <mxGeometry x="-0.1633" y="-1" relative="1" as="geometry">
            <mxPoint as="offset" />
          </mxGeometry>
        </mxCell>
        <mxCell id="kk42pE79QCRUeC5nkYzR-18" value="Menu" style="rhombus;whiteSpace=wrap;html=1;strokeWidth=2;" vertex="1" parent="1">
          <mxGeometry x="1160" y="1750" width="80" height="80" as="geometry" />
        </mxCell>
        <mxCell id="kk42pE79QCRUeC5nkYzR-23" style="edgeStyle=orthogonalEdgeStyle;rounded=0;orthogonalLoop=1;jettySize=auto;html=1;exitX=0;exitY=0.5;exitDx=0;exitDy=0;entryX=0.5;entryY=0;entryDx=0;entryDy=0;" edge="1" parent="1" source="kk42pE79QCRUeC5nkYzR-22" target="kk42pE79QCRUeC5nkYzR-1">
          <mxGeometry relative="1" as="geometry" />
        </mxCell>
        <mxCell id="kk42pE79QCRUeC5nkYzR-24" value="Buat Voucher" style="edgeLabel;html=1;align=center;verticalAlign=middle;resizable=0;points=[];" vertex="1" connectable="0" parent="kk42pE79QCRUeC5nkYzR-23">
          <mxGeometry x="0.4101" relative="1" as="geometry">
            <mxPoint as="offset" />
          </mxGeometry>
        </mxCell>
        <mxCell id="kk42pE79QCRUeC5nkYzR-25" style="edgeStyle=orthogonalEdgeStyle;rounded=0;orthogonalLoop=1;jettySize=auto;html=1;exitX=1;exitY=0.5;exitDx=0;exitDy=0;entryX=0.5;entryY=0;entryDx=0;entryDy=0;" edge="1" parent="1" source="kk42pE79QCRUeC5nkYzR-22" target="kk42pE79QCRUeC5nkYzR-34">
          <mxGeometry relative="1" as="geometry">
            <mxPoint x="2092.5" y="2085" as="targetPoint" />
          </mxGeometry>
        </mxCell>
        <mxCell id="kk42pE79QCRUeC5nkYzR-22" value="Menu" style="rhombus;whiteSpace=wrap;html=1;" vertex="1" parent="1">
          <mxGeometry x="1865" y="1855" width="140" height="70" as="geometry" />
        </mxCell>
        <mxCell id="kk42pE79QCRUeC5nkYzR-32" style="edgeStyle=orthogonalEdgeStyle;rounded=0;orthogonalLoop=1;jettySize=auto;html=1;exitX=0.5;exitY=1;exitDx=0;exitDy=0;entryX=0.5;entryY=0;entryDx=0;entryDy=0;" edge="1" parent="1" source="kk42pE79QCRUeC5nkYzR-30" target="kk42pE79QCRUeC5nkYzR-31">
          <mxGeometry relative="1" as="geometry" />
        </mxCell>
        <mxCell id="kk42pE79QCRUeC5nkYzR-30" value="Pilih Nomor PDK" style="rounded=1;whiteSpace=wrap;html=1;absoluteArcSize=1;arcSize=14;strokeWidth=2;" vertex="1" parent="1">
          <mxGeometry x="1942.5" y="2190" width="205" height="40" as="geometry" />
        </mxCell>
        <mxCell id="kk42pE79QCRUeC5nkYzR-31" value="Ubah keterangan:&lt;div&gt;Diproses / Dicarikan&lt;/div&gt;" style="rounded=1;whiteSpace=wrap;html=1;absoluteArcSize=1;arcSize=14;strokeWidth=2;" vertex="1" parent="1">
          <mxGeometry x="1942.5" y="2260" width="205" height="50" as="geometry" />
        </mxCell>
        <mxCell id="kk42pE79QCRUeC5nkYzR-35" style="edgeStyle=orthogonalEdgeStyle;rounded=0;orthogonalLoop=1;jettySize=auto;html=1;exitX=0;exitY=0.5;exitDx=0;exitDy=0;entryX=0.5;entryY=0;entryDx=0;entryDy=0;" edge="1" parent="1" source="kk42pE79QCRUeC5nkYzR-34" target="kk42pE79QCRUeC5nkYzR-30">
          <mxGeometry relative="1" as="geometry" />
        </mxCell>
        <mxCell id="kk42pE79QCRUeC5nkYzR-36" value="Text" style="edgeLabel;html=1;align=center;verticalAlign=middle;resizable=0;points=[];" vertex="1" connectable="0" parent="kk42pE79QCRUeC5nkYzR-35">
          <mxGeometry x="-0.5782" y="-2" relative="1" as="geometry">
            <mxPoint as="offset" />
          </mxGeometry>
        </mxCell>
        <mxCell id="kk42pE79QCRUeC5nkYzR-37" value="Text" style="edgeLabel;html=1;align=center;verticalAlign=middle;resizable=0;points=[];" vertex="1" connectable="0" parent="kk42pE79QCRUeC5nkYzR-35">
          <mxGeometry x="-0.5782" y="-2" relative="1" as="geometry">
            <mxPoint as="offset" />
          </mxGeometry>
        </mxCell>
        <mxCell id="kk42pE79QCRUeC5nkYzR-38" value="PDK" style="edgeLabel;html=1;align=center;verticalAlign=middle;resizable=0;points=[];" vertex="1" connectable="0" parent="kk42pE79QCRUeC5nkYzR-35">
          <mxGeometry x="-0.5782" y="-2" relative="1" as="geometry">
            <mxPoint as="offset" />
          </mxGeometry>
        </mxCell>
        <mxCell id="kk42pE79QCRUeC5nkYzR-42" style="edgeStyle=orthogonalEdgeStyle;rounded=0;orthogonalLoop=1;jettySize=auto;html=1;exitX=1;exitY=0.5;exitDx=0;exitDy=0;entryX=0.5;entryY=0;entryDx=0;entryDy=0;" edge="1" parent="1" source="kk42pE79QCRUeC5nkYzR-34" target="kk42pE79QCRUeC5nkYzR-40">
          <mxGeometry relative="1" as="geometry" />
        </mxCell>
        <mxCell id="kk42pE79QCRUeC5nkYzR-44" value="Text" style="edgeLabel;html=1;align=center;verticalAlign=middle;resizable=0;points=[];" vertex="1" connectable="0" parent="kk42pE79QCRUeC5nkYzR-42">
          <mxGeometry x="-0.6581" relative="1" as="geometry">
            <mxPoint as="offset" />
          </mxGeometry>
        </mxCell>
        <mxCell id="kk42pE79QCRUeC5nkYzR-45" value="Text" style="edgeLabel;html=1;align=center;verticalAlign=middle;resizable=0;points=[];" vertex="1" connectable="0" parent="kk42pE79QCRUeC5nkYzR-42">
          <mxGeometry x="-0.6581" relative="1" as="geometry">
            <mxPoint as="offset" />
          </mxGeometry>
        </mxCell>
        <mxCell id="kk42pE79QCRUeC5nkYzR-46" value="PDM" style="edgeLabel;html=1;align=center;verticalAlign=middle;resizable=0;points=[];" vertex="1" connectable="0" parent="kk42pE79QCRUeC5nkYzR-42">
          <mxGeometry x="-0.6581" relative="1" as="geometry">
            <mxPoint as="offset" />
          </mxGeometry>
        </mxCell>
        <mxCell id="kk42pE79QCRUeC5nkYzR-34" value="&lt;span style=&quot;font-size: 11px; text-wrap-mode: nowrap;&quot;&gt;Ubah Status&lt;/span&gt;" style="rhombus;whiteSpace=wrap;html=1;" vertex="1" parent="1">
          <mxGeometry x="2132.5" y="2005" width="140" height="70" as="geometry" />
        </mxCell>
        <mxCell id="kk42pE79QCRUeC5nkYzR-39" style="edgeStyle=orthogonalEdgeStyle;rounded=0;orthogonalLoop=1;jettySize=auto;html=1;exitX=0.5;exitY=1;exitDx=0;exitDy=0;entryX=0.5;entryY=0;entryDx=0;entryDy=0;" edge="1" parent="1" source="kk42pE79QCRUeC5nkYzR-40" target="kk42pE79QCRUeC5nkYzR-41">
          <mxGeometry relative="1" as="geometry" />
        </mxCell>
        <mxCell id="kk42pE79QCRUeC5nkYzR-40" value="Pilih Nomor PDM" style="rounded=1;whiteSpace=wrap;html=1;absoluteArcSize=1;arcSize=14;strokeWidth=2;" vertex="1" parent="1">
          <mxGeometry x="2255" y="2190" width="205" height="40" as="geometry" />
        </mxCell>
        <mxCell id="kk42pE79QCRUeC5nkYzR-41" value="Ubah keterangan:&lt;div&gt;Diproses / Diterima / Ditolak&lt;/div&gt;" style="rounded=1;whiteSpace=wrap;html=1;absoluteArcSize=1;arcSize=14;strokeWidth=2;" vertex="1" parent="1">
          <mxGeometry x="2255" y="2260" width="205" height="50" as="geometry" />
        </mxCell>
        <mxCell id="kk42pE79QCRUeC5nkYzR-56" style="edgeStyle=orthogonalEdgeStyle;rounded=0;orthogonalLoop=1;jettySize=auto;html=1;exitX=1;exitY=0.5;exitDx=0;exitDy=0;entryX=0.5;entryY=0;entryDx=0;entryDy=0;" edge="1" parent="1" source="kk42pE79QCRUeC5nkYzR-47" target="kk42pE79QCRUeC5nkYzR-53">
          <mxGeometry relative="1" as="geometry" />
        </mxCell>
        <mxCell id="kk42pE79QCRUeC5nkYzR-57" value="Perbarui" style="edgeLabel;html=1;align=center;verticalAlign=middle;resizable=0;points=[];" vertex="1" connectable="0" parent="kk42pE79QCRUeC5nkYzR-56">
          <mxGeometry x="-0.4202" y="2" relative="1" as="geometry">
            <mxPoint as="offset" />
          </mxGeometry>
        </mxCell>
        <mxCell id="kk42pE79QCRUeC5nkYzR-47" value="PDM" style="rhombus;whiteSpace=wrap;html=1;" vertex="1" parent="1">
          <mxGeometry x="1040" y="1980" width="140" height="70" as="geometry" />
        </mxCell>
        <mxCell id="kk42pE79QCRUeC5nkYzR-61" style="edgeStyle=orthogonalEdgeStyle;rounded=0;orthogonalLoop=1;jettySize=auto;html=1;exitX=0.5;exitY=1;exitDx=0;exitDy=0;entryX=0.5;entryY=0;entryDx=0;entryDy=0;" edge="1" parent="1" source="kk42pE79QCRUeC5nkYzR-49" target="kk42pE79QCRUeC5nkYzR-54">
          <mxGeometry relative="1" as="geometry" />
        </mxCell>
        <mxCell id="kk42pE79QCRUeC5nkYzR-49" value="&lt;div&gt;&lt;span style=&quot;&quot;&gt;&lt;b&gt;INPUT&lt;/b&gt;&lt;/span&gt;&lt;/div&gt;Upload Kwitansi/Dokumen Pendukung Lainnya" style="shape=parallelogram;perimeter=parallelogramPerimeter;whiteSpace=wrap;html=1;fixedSize=1;align=center;" vertex="1" parent="1">
          <mxGeometry x="1187.5" y="2180" width="190" height="60" as="geometry" />
        </mxCell>
        <mxCell id="kk42pE79QCRUeC5nkYzR-51" value="Database" style="strokeWidth=2;html=1;shape=mxgraph.flowchart.database;whiteSpace=wrap;" vertex="1" parent="1">
          <mxGeometry x="1235" y="2480" width="95" height="60" as="geometry" />
        </mxCell>
        <mxCell id="kk42pE79QCRUeC5nkYzR-53" value="Pilih Nomor PDM" style="rounded=1;whiteSpace=wrap;html=1;absoluteArcSize=1;arcSize=14;strokeWidth=2;" vertex="1" parent="1">
          <mxGeometry x="1180" y="2095" width="205" height="40" as="geometry" />
        </mxCell>
        <mxCell id="kk42pE79QCRUeC5nkYzR-59" style="edgeStyle=orthogonalEdgeStyle;rounded=0;orthogonalLoop=1;jettySize=auto;html=1;exitX=0.5;exitY=1;exitDx=0;exitDy=0;entryX=0.5;entryY=0;entryDx=0;entryDy=0;" edge="1" parent="1" source="kk42pE79QCRUeC5nkYzR-54" target="kk42pE79QCRUeC5nkYzR-58">
          <mxGeometry relative="1" as="geometry" />
        </mxCell>
        <mxCell id="kk42pE79QCRUeC5nkYzR-54" value="Submit PDM" style="rounded=1;whiteSpace=wrap;html=1;" vertex="1" parent="1">
          <mxGeometry x="1210" y="2270" width="142.5" height="50" as="geometry" />
        </mxCell>
        <mxCell id="kk42pE79QCRUeC5nkYzR-55" style="edgeStyle=orthogonalEdgeStyle;rounded=0;orthogonalLoop=1;jettySize=auto;html=1;" edge="1" parent="1" source="kk42pE79QCRUeC5nkYzR-53" target="kk42pE79QCRUeC5nkYzR-49">
          <mxGeometry relative="1" as="geometry" />
        </mxCell>
        <mxCell id="kk42pE79QCRUeC5nkYzR-58" value="&lt;div&gt;&lt;span style=&quot;&quot;&gt;&lt;b&gt;OUTPUT&lt;/b&gt;&lt;/span&gt;&lt;/div&gt;&lt;div&gt;yyyy/mm/kode komisi/no. PDK&lt;/div&gt;&lt;div&gt;Contoh : 2025/06/110/015&lt;/div&gt;&lt;div&gt;No. PDM : Auto Increment 3 digit &amp;amp; &lt;br&gt;Reset kembali ke 000 setelah awal bulan&lt;/div&gt;" style="shape=parallelogram;perimeter=parallelogramPerimeter;whiteSpace=wrap;html=1;fixedSize=1;align=center;" vertex="1" parent="1">
          <mxGeometry x="1091.25" y="2370" width="380" height="80" as="geometry" />
        </mxCell>
        <mxCell id="kk42pE79QCRUeC5nkYzR-60" style="edgeStyle=orthogonalEdgeStyle;rounded=0;orthogonalLoop=1;jettySize=auto;html=1;exitX=0.5;exitY=1;exitDx=0;exitDy=0;entryX=0.5;entryY=0;entryDx=0;entryDy=0;entryPerimeter=0;" edge="1" parent="1" source="kk42pE79QCRUeC5nkYzR-58" target="kk42pE79QCRUeC5nkYzR-51">
          <mxGeometry relative="1" as="geometry" />
        </mxCell>
        <mxCell id="kk42pE79QCRUeC5nkYzR-67" style="edgeStyle=orthogonalEdgeStyle;rounded=0;orthogonalLoop=1;jettySize=auto;html=1;exitX=0;exitY=0.5;exitDx=0;exitDy=0;entryX=1;entryY=0.5;entryDx=0;entryDy=0;" edge="1" parent="1" source="kk42pE79QCRUeC5nkYzR-64" target="EFFLVUITV1ritFmUOYrr-25">
          <mxGeometry relative="1" as="geometry" />
        </mxCell>
        <mxCell id="kk42pE79QCRUeC5nkYzR-78" value="Buat Baru" style="edgeLabel;html=1;align=center;verticalAlign=middle;resizable=0;points=[];" vertex="1" connectable="0" parent="kk42pE79QCRUeC5nkYzR-67">
          <mxGeometry x="-0.5035" y="-2" relative="1" as="geometry">
            <mxPoint as="offset" />
          </mxGeometry>
        </mxCell>
        <mxCell id="kk42pE79QCRUeC5nkYzR-75" style="edgeStyle=orthogonalEdgeStyle;rounded=0;orthogonalLoop=1;jettySize=auto;html=1;exitX=0.5;exitY=1;exitDx=0;exitDy=0;entryX=0.5;entryY=0;entryDx=0;entryDy=0;" edge="1" parent="1" source="kk42pE79QCRUeC5nkYzR-64" target="kk42pE79QCRUeC5nkYzR-71">
          <mxGeometry relative="1" as="geometry" />
        </mxCell>
        <mxCell id="kk42pE79QCRUeC5nkYzR-76" value="Perbarui" style="edgeLabel;html=1;align=center;verticalAlign=middle;resizable=0;points=[];" vertex="1" connectable="0" parent="kk42pE79QCRUeC5nkYzR-75">
          <mxGeometry x="-0.0918" relative="1" as="geometry">
            <mxPoint y="1" as="offset" />
          </mxGeometry>
        </mxCell>
        <mxCell id="kk42pE79QCRUeC5nkYzR-88" style="edgeStyle=orthogonalEdgeStyle;rounded=0;orthogonalLoop=1;jettySize=auto;html=1;exitX=1;exitY=1;exitDx=0;exitDy=0;entryX=0.5;entryY=0;entryDx=0;entryDy=0;" edge="1" parent="1" source="kk42pE79QCRUeC5nkYzR-64" target="kk42pE79QCRUeC5nkYzR-81">
          <mxGeometry relative="1" as="geometry">
            <Array as="points">
              <mxPoint x="215" y="1960" />
              <mxPoint x="550" y="1960" />
            </Array>
          </mxGeometry>
        </mxCell>
        <mxCell id="kk42pE79QCRUeC5nkYzR-89" value="Tanda Tangan" style="edgeLabel;html=1;align=center;verticalAlign=middle;resizable=0;points=[];" vertex="1" connectable="0" parent="kk42pE79QCRUeC5nkYzR-88">
          <mxGeometry x="-0.1387" y="-2" relative="1" as="geometry">
            <mxPoint as="offset" />
          </mxGeometry>
        </mxCell>
        <mxCell id="kk42pE79QCRUeC5nkYzR-64" value="PDK" style="rhombus;whiteSpace=wrap;html=1;" vertex="1" parent="1">
          <mxGeometry x="110" y="1856.25" width="140" height="70" as="geometry" />
        </mxCell>
        <mxCell id="kk42pE79QCRUeC5nkYzR-68" style="edgeStyle=orthogonalEdgeStyle;rounded=0;orthogonalLoop=1;jettySize=auto;html=1;entryX=0.5;entryY=0;entryDx=0;entryDy=0;" edge="1" parent="1" source="kk42pE79QCRUeC5nkYzR-69" target="kk42pE79QCRUeC5nkYzR-72">
          <mxGeometry relative="1" as="geometry">
            <mxPoint x="180" y="2405" as="targetPoint" />
          </mxGeometry>
        </mxCell>
        <mxCell id="kk42pE79QCRUeC5nkYzR-69" value="Submit PDK" style="rounded=1;whiteSpace=wrap;html=1;" vertex="1" parent="1">
          <mxGeometry x="110" y="2275" width="140" height="50" as="geometry" />
        </mxCell>
        <mxCell id="kk42pE79QCRUeC5nkYzR-70" style="edgeStyle=orthogonalEdgeStyle;rounded=0;orthogonalLoop=1;jettySize=auto;html=1;" edge="1" parent="1" source="kk42pE79QCRUeC5nkYzR-71" target="kk42pE79QCRUeC5nkYzR-69">
          <mxGeometry relative="1" as="geometry" />
        </mxCell>
        <mxCell id="kk42pE79QCRUeC5nkYzR-71" value="&lt;div&gt;&lt;span style=&quot;&quot;&gt;&lt;b&gt;INPUT&lt;/b&gt;&lt;/span&gt;&lt;/div&gt;&lt;span style=&quot;&quot;&gt;1. Tahun Anggaran : 2025/2026 (auto field)&lt;/span&gt;&lt;div style=&quot;&quot;&gt;2. Komisi : KDM (defined in UAM)&lt;/div&gt;&lt;div style=&quot;&quot;&gt;3. Seksi/Tim: Teknologi &amp;amp; Inovasi (Following Struktur Komisi)&lt;/div&gt;&lt;div style=&quot;&quot;&gt;4. Proker :&amp;nbsp;Pengembangan Website&lt;br&gt;dan Aplikasi Gereja (Following Master Proker)&lt;/div&gt;&lt;div style=&quot;&quot;&gt;5. Keterangan : Pembayaran Sewa Server + Domain&lt;br&gt;6. Nominal : 300.000&amp;nbsp;&lt;span style=&quot;background-color: transparent; color: light-dark(rgb(0, 0, 0), rgb(255, 255, 255));&quot;&gt;&amp;nbsp;&lt;/span&gt;&lt;span style=&quot;background-color: transparent; color: light-dark(rgb(0, 0, 0), rgb(255, 255, 255));&quot;&gt;(Following Master Proker)&lt;/span&gt;&lt;/div&gt;" style="shape=parallelogram;perimeter=parallelogramPerimeter;whiteSpace=wrap;html=1;fixedSize=1;align=center;" vertex="1" parent="1">
          <mxGeometry x="-10" y="2095" width="380" height="140" as="geometry" />
        </mxCell>
        <mxCell id="kk42pE79QCRUeC5nkYzR-72" value="&lt;div&gt;&lt;span style=&quot;&quot;&gt;&lt;b&gt;OUTPUT&lt;/b&gt;&lt;/span&gt;&lt;/div&gt;&lt;div&gt;yyyy/mm/kode komisi/no. PDK&lt;/div&gt;&lt;div&gt;Contoh : 2025/06/110/015&lt;/div&gt;&lt;div&gt;No. PDM : Auto Increment 3 digit &amp;amp; &lt;br&gt;Reset kembali ke 000 setelah awal bulan&lt;/div&gt;" style="shape=parallelogram;perimeter=parallelogramPerimeter;whiteSpace=wrap;html=1;fixedSize=1;align=center;" vertex="1" parent="1">
          <mxGeometry x="-10" y="2355" width="380" height="80" as="geometry" />
        </mxCell>
        <mxCell id="kk42pE79QCRUeC5nkYzR-73" value="Database" style="strokeWidth=2;html=1;shape=mxgraph.flowchart.database;whiteSpace=wrap;" vertex="1" parent="1">
          <mxGeometry x="132.5" y="2475" width="95" height="60" as="geometry" />
        </mxCell>
        <mxCell id="kk42pE79QCRUeC5nkYzR-74" style="edgeStyle=orthogonalEdgeStyle;rounded=0;orthogonalLoop=1;jettySize=auto;html=1;exitX=0.5;exitY=1;exitDx=0;exitDy=0;entryX=0.5;entryY=0;entryDx=0;entryDy=0;entryPerimeter=0;" edge="1" parent="1" source="kk42pE79QCRUeC5nkYzR-72" target="kk42pE79QCRUeC5nkYzR-73">
          <mxGeometry relative="1" as="geometry" />
        </mxCell>
        <mxCell id="kk42pE79QCRUeC5nkYzR-84" style="edgeStyle=orthogonalEdgeStyle;rounded=0;orthogonalLoop=1;jettySize=auto;html=1;exitX=0.5;exitY=1;exitDx=0;exitDy=0;entryX=0.5;entryY=0;entryDx=0;entryDy=0;" edge="1" parent="1" source="kk42pE79QCRUeC5nkYzR-79" target="kk42pE79QCRUeC5nkYzR-82">
          <mxGeometry relative="1" as="geometry" />
        </mxCell>
        <mxCell id="kk42pE79QCRUeC5nkYzR-79" value="&lt;div&gt;&lt;span style=&quot;&quot;&gt;&lt;b&gt;Tanda Tangan&lt;/b&gt;&lt;/span&gt;&lt;/div&gt;Buat / Upload&amp;nbsp;" style="shape=parallelogram;perimeter=parallelogramPerimeter;whiteSpace=wrap;html=1;fixedSize=1;align=center;" vertex="1" parent="1">
          <mxGeometry x="454.5" y="2175" width="190" height="60" as="geometry" />
        </mxCell>
        <mxCell id="kk42pE79QCRUeC5nkYzR-80" value="Database" style="strokeWidth=2;html=1;shape=mxgraph.flowchart.database;whiteSpace=wrap;" vertex="1" parent="1">
          <mxGeometry x="502" y="2475" width="95" height="60" as="geometry" />
        </mxCell>
        <mxCell id="kk42pE79QCRUeC5nkYzR-83" style="edgeStyle=orthogonalEdgeStyle;rounded=0;orthogonalLoop=1;jettySize=auto;html=1;exitX=0.5;exitY=1;exitDx=0;exitDy=0;entryX=0.5;entryY=0;entryDx=0;entryDy=0;" edge="1" parent="1" source="kk42pE79QCRUeC5nkYzR-81" target="kk42pE79QCRUeC5nkYzR-79">
          <mxGeometry relative="1" as="geometry" />
        </mxCell>
        <mxCell id="kk42pE79QCRUeC5nkYzR-81" value="Pilih Nomor PDK" style="rounded=1;whiteSpace=wrap;html=1;absoluteArcSize=1;arcSize=14;strokeWidth=2;" vertex="1" parent="1">
          <mxGeometry x="447" y="2090" width="205" height="40" as="geometry" />
        </mxCell>
        <mxCell id="kk42pE79QCRUeC5nkYzR-82" value="Submit PDM" style="rounded=1;whiteSpace=wrap;html=1;" vertex="1" parent="1">
          <mxGeometry x="478.25" y="2270" width="142.5" height="50" as="geometry" />
        </mxCell>
        <mxCell id="kk42pE79QCRUeC5nkYzR-85" style="edgeStyle=orthogonalEdgeStyle;rounded=0;orthogonalLoop=1;jettySize=auto;html=1;exitX=0.5;exitY=1;exitDx=0;exitDy=0;entryX=0.5;entryY=0;entryDx=0;entryDy=0;entryPerimeter=0;" edge="1" parent="1" source="kk42pE79QCRUeC5nkYzR-82" target="kk42pE79QCRUeC5nkYzR-80">
          <mxGeometry relative="1" as="geometry" />
        </mxCell>
      </root>
    </mxGraphModel>
  </diagram>
</mxfile>
